<?xml version="1.0" encoding="UTF-8"?>
<svg id="Layer_1" data-name="Layer 1" xmlns="http://www.w3.org/2000/svg" width="369.4468" height="136.0213" viewBox="0 0 369.4468 136.0213">
  <defs>
    <style>
      .cls-1 {
        fill: #30273f;
      }

      .cls-2 {
        fill: #fdd8c8;
      }

      .cls-3 {
        fill: #fd7f92;
      }
    </style>
  </defs>
  <rect class="cls-3" x="129.2553" width="20" height="34"/>
  <polygon class="cls-1" points="198.2553 136.0213 129.2553 136.0213 129.2553 64.0213 149.2553 64.0213 149.2553 114.0213 198.2553 114.0213 198.2553 136.0213"/>
  <rect class="cls-3" x="197.4149" y=".0213" width="20" height="34"/>
  <polygon class="cls-1" points="266.4149 136.0213 197.4149 136.0213 197.4149 64.0213 217.4149 64.0213 217.4149 114.0213 266.4149 114.0213 266.4149 136.0213"/>
  <polygon class="cls-2" points="71.2553 64 96 64 129.2553 136.0213 104.9362 136.0213 71.2553 64"/>
  <polygon class="cls-3" points="64.3404 .0213 77.2553 25 24.2553 136.0213 0 136 64.3404 .0213"/>
  <polygon class="cls-1" points="266.4149 .0213 307.2553 90 307.2553 136.0213 327.5745 136 327.5745 86.1064 288 .0213 266.4149 .0213"/>
  <polygon class="cls-2" points="346.4681 .0213 369.4468 0 348.2553 44 326.0426 44 346.4681 .0213"/>
</svg>